<svg width="392" height="369" viewBox="0 0 392 369" fill="none" xmlns="http://www.w3.org/2000/svg">
<g clip-path="url(#clip0_439_595)">
<path d="M281.025 369C342.315 369 392 364.544 392 359.047C392 353.55 342.315 349.093 281.025 349.093C219.735 349.093 170.049 353.55 170.049 359.047C170.049 364.544 219.735 369 281.025 369Z" fill="white"/>
<path opacity="0.1" d="M281.025 369C342.315 369 392 364.544 392 359.047C392 353.55 342.315 349.093 281.025 349.093C219.735 349.093 170.049 353.55 170.049 359.047C170.049 364.544 219.735 369 281.025 369Z" fill="#292A2E"/>
<path d="M96.8005 211.033H61.4266V221.037H96.8005V211.033Z" fill="#F4F4F4"/>
<path opacity="0.05" d="M70.812 211.033H66.177V221.037H70.812V211.033Z" fill="#292A2E"/>
<path d="M92.2804 213.207H73.0077V219.136H92.2804V213.207Z" fill="white"/>
<path d="M125.016 212.338L92.1476 198.384L88.028 207.552L120.896 221.506L125.016 212.338Z" fill="#F4F4F4"/>
<path opacity="0.05" d="M125.016 212.338L92.1476 198.384L88.028 207.552L120.896 221.506L125.016 212.338Z" fill="#292A2E"/>
<path d="M120.602 210.464L116.295 208.636L112.176 217.804L116.483 219.632L120.602 210.464Z" fill="white"/>
<path d="M113.359 209.762L95.452 202.16L93.0108 207.593L110.918 215.195L113.359 209.762Z" fill="white"/>
<path opacity="0.05" d="M125.078 337.767H116.188V343.537H125.078V337.767Z" fill="#292A2E"/>
<path opacity="0.05" d="M34.1919 337.767H25.3024V343.537H34.1919V337.767Z" fill="#292A2E"/>
<path d="M133.226 221.506H17.1541V337.572H133.226V221.506Z" fill="#F4F4F4"/>
<path opacity="0.03" d="M133.226 221.506H17.1541V337.572H133.226V221.506Z" fill="#292A2E"/>
<path d="M154.736 221.506H38.6639V337.572H154.736V221.506Z" fill="#F4F4F4"/>
<path opacity="0.05" d="M146.587 337.767H137.698V343.537H146.587V337.767Z" fill="#292A2E"/>
<path opacity="0.05" d="M55.7022 337.767H46.8127V343.537H55.7022V337.767Z" fill="#292A2E"/>
<path opacity="0.7" d="M150.38 226.943H43.0215V249.241H150.38V226.943Z" fill="white"/>
<path opacity="0.7" d="M150.38 254.699H43.0215V276.997H150.38V254.699Z" fill="white"/>
<path opacity="0.7" d="M150.38 282.455H43.0215V304.753H150.38V282.455Z" fill="white"/>
<path opacity="0.05" d="M96.7005 241.212C98.4733 241.212 99.9104 239.815 99.9104 238.092C99.9104 236.369 98.4733 234.972 96.7005 234.972C94.9277 234.972 93.4906 236.369 93.4906 238.092C93.4906 239.815 94.9277 241.212 96.7005 241.212Z" fill="#292A2E"/>
<path opacity="0.05" d="M96.7005 268.968C98.4733 268.968 99.9104 267.571 99.9104 265.848C99.9104 264.125 98.4733 262.728 96.7005 262.728C94.9277 262.728 93.4906 264.125 93.4906 265.848C93.4906 267.571 94.9277 268.968 96.7005 268.968Z" fill="#292A2E"/>
<path opacity="0.05" d="M96.7005 296.725C98.4733 296.725 99.9104 295.328 99.9104 293.605C99.9104 291.882 98.4733 290.485 96.7005 290.485C94.9277 290.485 93.4906 291.882 93.4906 293.605C93.4906 295.328 94.9277 296.725 96.7005 296.725Z" fill="#292A2E"/>
<path opacity="0.7" d="M150.38 310.837H43.0215V333.136H150.38V310.837Z" fill="white"/>
<path opacity="0.05" d="M96.7006 325.106C98.4734 325.106 99.9105 323.709 99.9105 321.986C99.9105 320.263 98.4734 318.866 96.7006 318.866C94.9278 318.866 93.4907 320.263 93.4907 321.986C93.4907 323.709 94.9278 325.106 96.7006 325.106Z" fill="#292A2E"/>
<path d="M58.3576 106.306L126.992 106.306L126.992 19.4727L58.3576 19.4727L58.3576 106.306Z" fill="#F4F4F4"/>
<path d="M58.3581 19.4727H56.1315V106.306H58.3581V19.4727Z" fill="#F4F4F4"/>
<path opacity="0.05" d="M58.3581 19.4727H56.1315V106.306H58.3581V19.4727Z" fill="#292A2E"/>
<path opacity="0.05" d="M70.8609 90.4883H114.49V35.2901L70.8609 35.2901V90.4883Z" fill="#292A2E"/>
<path opacity="0.03" d="M70.8609 90.4883H73.1346V35.2901H70.8609V90.4883Z" fill="#292A2E"/>
<path d="M2.22612 182.721H58.3577L58.3577 127.66H2.22612L2.22612 182.721Z" fill="#F4F4F4"/>
<path opacity="0.05" d="M12.4513 172.691H48.1325L48.1325 137.69H12.4513L12.4513 172.691Z" fill="#292A2E"/>
<path d="M2.22655 127.66H0V182.721H2.22655V127.66Z" fill="#F4F4F4"/>
<path opacity="0.05" d="M2.22655 127.66H0V182.721H2.22655V127.66Z" fill="#292A2E"/>
<path opacity="0.03" d="M12.4512 172.691H14.7249L14.7249 137.69H12.4512L12.4512 172.691Z" fill="#292A2E"/>
<path d="M344.509 19.2659H201.28V158.483H344.509V19.2659Z" fill="#F4F4F4"/>
<path d="M201.28 19.2659H199.638V158.483H201.28V19.2659Z" fill="#F4F4F4"/>
<path opacity="0.05" d="M201.28 19.2659H199.638V158.483H201.28V19.2659Z" fill="#292A2E"/>
<path opacity="0.05" d="M235.978 115.198V78.7739H266.674V99.9356H314.222V137.405H334.431V158.483H314.222H310.329H208.17V115.198H235.978Z" fill="#292A2E"/>
<path opacity="0.34" d="M262.733 82.7288H240.38V86.6835H262.733V82.7288Z" fill="#FFFFFA"/>
<path opacity="0.34" d="M262.733 90.9241H240.38V94.8788H262.733V90.9241Z" fill="#FFFFFA"/>
<path opacity="0.34" d="M262.733 99.1194H240.38V103.074H262.733V99.1194Z" fill="#FFFFFA"/>
<path opacity="0.34" d="M216.254 119.037H212.133V122.992H216.254V119.037Z" fill="#FFFFFA"/>
<path opacity="0.34" d="M216.254 127.232H212.133V131.187H216.254V127.232Z" fill="#FFFFFA"/>
<path opacity="0.34" d="M216.254 135.427H212.133V139.382H216.254V135.427Z" fill="#FFFFFA"/>
<path opacity="0.34" d="M223.876 119.037H219.755V122.992H223.876V119.037Z" fill="#FFFFFA"/>
<path opacity="0.34" d="M223.876 127.232H219.755V131.187H223.876V127.232Z" fill="#FFFFFA"/>
<path opacity="0.34" d="M223.876 135.427H219.755V139.382H223.876V135.427Z" fill="#FFFFFA"/>
<path opacity="0.34" d="M231.292 119.037H227.172V122.992H231.292V119.037Z" fill="#FFFFFA"/>
<path opacity="0.34" d="M231.292 127.232H227.172V131.187H231.292V127.232Z" fill="#FFFFFA"/>
<path opacity="0.34" d="M231.292 135.427H227.172V139.382H231.292V135.427Z" fill="#FFFFFA"/>
<path d="M201.28 88.0934H230.1V19.2654H232.483V88.0934H310.329V19.2654H312.712V88.0934H344.509V90.41H312.712V158.483H310.329V90.41H232.483V158.483H230.1V90.41H201.28V88.0934Z" fill="white"/>
<path d="M350.214 158.315H195.574V162.945H350.214V158.315Z" fill="#F4F4F4"/>
<path opacity="0.1" d="M350.214 158.315H195.574V162.945H350.214V158.315Z" fill="#292A2E"/>
<path opacity="0.1" d="M195.574 158.315H193.341V162.945H195.574V158.315Z" fill="#292A2E"/>
<path opacity="0.1" d="M195.574 158.315H193.341V162.945H195.574V158.315Z" fill="#292A2E"/>
<path d="M319.948 182.165C298.021 182.165 280.245 187.98 280.245 195.152V210.614H359.652V195.152C359.652 187.98 341.876 182.165 319.948 182.165Z" fill="#14B8A6"/>
<path opacity="0.49" d="M319.948 182.165C298.021 182.165 280.245 187.98 280.245 195.152V210.614H359.652V195.152C359.652 187.98 341.876 182.165 319.948 182.165Z" fill="white"/>
<path opacity="0.49" d="M348.836 195.154V210.613H280.244V195.154C280.244 188.58 295.173 183.147 314.54 182.289C333.909 183.147 348.836 188.58 348.836 195.154Z" fill="white"/>
<path d="M359.652 360.847H360.984L359.652 209.242L358.33 210.538L359.272 316.437L312.234 317.214L311.285 210.527L309.964 210.538L310.913 317.236L282.518 317.705L281.565 210.527L280.244 209.254L281.576 360.847L282.886 360.836L282.529 318.99L310.925 318.521L311.285 360.847L312.606 360.836L312.246 318.499L359.284 317.722L359.652 360.847Z" fill="#292A2E"/>
<path d="M239.892 338.149C239.892 338.149 237.531 350.046 226.071 350.709C214.611 351.372 217.096 360.246 217.096 360.246H260.889V338.979L239.892 338.149Z" fill="#14B8A6"/>
<path d="M264.878 302.366C264.878 302.366 268.162 314.055 258.18 319.567C248.198 325.078 254.458 331.975 254.458 331.975L293.753 313.184L284.095 294.101L264.878 302.366Z" fill="#14B8A6"/>
<path d="M260.72 310.091L231.111 201.501C228.865 189.504 232.246 184.304 237.456 179.253C246.61 170.378 284.54 151.49 284.54 151.49L330.044 151.369C342.111 151.369 353.972 162.933 353.972 174.661C353.972 186.389 341.706 196.335 329.64 196.335L273.605 201.771L288.795 301.2L260.72 310.091Z" fill="#262626"/>
<path d="M288.794 301.199L282.814 262.055L252.52 280.018L260.72 310.091L288.794 301.199Z" fill="#0C0C0C"/>
<path d="M295.661 173.464C295.661 173.464 276.532 177.608 257.587 196.022C246.101 207.187 247.043 227.391 248.766 266.25L267.582 239.237L288.22 203.057L295.661 173.464Z" fill="#0C0C0C"/>
<path d="M361.893 151.357L330.99 151.215L330.978 151.611H321.621C321.621 151.611 298.18 172.575 279.31 185.786C265.584 195.394 257.21 204.555 256.485 214.54C254.719 238.879 234.797 342.682 234.797 342.682L264.779 347.095L291.09 223.042C291.09 223.042 332.23 204.606 341.747 198.192C350.707 192.151 357.037 189.815 360.002 183.222C365.124 171.836 361.893 151.357 361.893 151.357Z" fill="#262626"/>
<path d="M327.223 158.923L277.091 159.568L305.213 175.894L328.613 164.149C329.177 163.854 329.622 163.385 329.879 162.815C330.136 162.245 330.188 161.608 330.028 161.006C329.868 160.403 329.504 159.871 328.996 159.493C328.487 159.115 327.863 158.915 327.223 158.923Z" fill="#292A2E"/>
<path opacity="0.2" d="M327.223 158.923L277.091 159.568L305.213 175.894L328.613 164.149C329.177 163.854 329.622 163.385 329.879 162.815C330.136 162.245 330.188 161.608 330.028 161.006C329.868 160.403 329.504 159.871 328.996 159.493C328.487 159.115 327.863 158.915 327.223 158.923Z" fill="white"/>
<path d="M277.378 71.5029L263.198 116.161L234.795 152.306L251.387 170.818L285.176 134.161C286.733 132.965 287.951 131.404 288.715 129.624L289.241 128.385L308.759 82.4844L277.378 71.5029Z" fill="#14B8A6"/>
<path d="M299.222 24.099C299.222 24.099 293.508 19.9041 292.093 10.256C290.996 2.78532 298.086 7.62523 298.086 7.62523C298.086 7.62523 297.351 2.23828 301.389 2.77291C305.427 3.30754 307.686 8.9663 307.686 8.9663" fill="#0C0C0C"/>
<path d="M322.259 3.40356C322.259 3.40356 342.293 5.49114 335.051 31.8793L333.278 31.9949L329.679 32.2294" fill="#0C0C0C"/>
<path d="M302.578 59.4376C302.666 59.4265 303.643 75.1897 322.483 73.8169C335.527 72.8671 340.178 59.4153 340.477 59.4153C339.07 59.1247 337.332 58.6838 336.642 58.5327C335.136 58.1931 333.773 57.4161 332.733 56.3049C331.693 55.1937 331.026 53.8011 330.82 52.3123C330.439 50.0779 331.084 38.6457 330.886 36.3848L310.866 40.7286C311.146 45.5038 313.104 56.5735 306.242 58.5327C305.099 58.8563 303.869 59.1559 302.578 59.4376Z" fill="#E98862"/>
<path opacity="0.52" d="M310.585 54.0088C310.899 53.0263 311.101 52.0134 311.188 50.9881C311.408 48.6486 311.363 46.2927 311.056 43.9626C315.126 43.4295 318.96 41.7975 322.123 39.252C322.495 40.5866 324.54 46.4183 323.973 47.6845C322.903 50.0815 317.875 54.0088 310.585 54.0088Z" fill="#0C0C0C"/>
<path d="M314.718 50.8887C322.617 50.1999 332.072 45.3489 332.208 34.9264L332.331 25.5223C332.467 15.1002 326.946 6.58169 316.85 6.4567C306.755 6.33214 299.098 14.6876 298.961 25.1101L298.907 29.2732C298.914 30.7031 299.021 32.1308 299.228 33.5464C299.746 37.2918 300.549 42.9861 303.164 46.8381C305.633 50.4747 309.671 51.3283 314.718 50.8887Z" fill="#E98862"/>
<path opacity="0.52" d="M311.053 41.3622C309.423 41.434 307.798 41.1324 306.31 40.4817C306.249 40.455 306.202 40.4063 306.177 40.3459C306.153 40.2855 306.154 40.2183 306.18 40.1587C306.206 40.0991 306.256 40.0518 306.317 40.027C306.379 40.0021 306.448 40.0017 306.51 40.0259C309.716 41.3549 312.628 41.1606 314.929 39.4634C314.975 39.4277 315.023 39.3944 315.073 39.3637C315.131 39.3372 315.197 39.3328 315.258 39.3515C315.319 39.3701 315.371 39.4103 315.403 39.4642C315.435 39.5181 315.445 39.5817 315.431 39.6423C315.417 39.703 315.38 39.7563 315.327 39.7917C315.309 39.8028 315.279 39.8255 315.239 39.8563C314.029 40.7522 312.572 41.2765 311.053 41.3622Z" fill="#0C0C0C"/>
<path opacity="0.52" d="M311.128 43.7099C310.833 43.7276 310.537 43.7207 310.244 43.6894C310.211 43.686 310.179 43.6762 310.149 43.6607C310.12 43.6451 310.094 43.6241 310.073 43.5989C310.052 43.5736 310.036 43.5445 310.027 43.5133C310.017 43.4822 310.014 43.4495 310.018 43.4172C310.021 43.3848 310.031 43.3535 310.047 43.325C310.063 43.2964 310.085 43.2712 310.111 43.2508C310.137 43.2303 310.167 43.2151 310.199 43.2059C310.231 43.1967 310.265 43.1937 310.298 43.1972C312.062 43.3791 312.904 42.5936 312.94 42.5598C312.988 42.5133 313.053 42.4871 313.12 42.4871C313.188 42.487 313.253 42.513 313.3 42.5594C313.348 42.6057 313.375 42.6687 313.375 42.7343C313.375 42.8 313.349 42.863 313.301 42.9095C312.693 43.4124 311.925 43.6952 311.128 43.7099Z" fill="#0C0C0C"/>
<path d="M302.295 31.2775C302.982 31.2775 303.539 30.7363 303.539 30.0687C303.539 29.4011 302.982 28.8599 302.295 28.8599C301.609 28.8599 301.052 29.4011 301.052 30.0687C301.052 30.7363 301.609 31.2775 302.295 31.2775Z" fill="#0C0C0C"/>
<path d="M314.445 30.5365C315.132 30.5365 315.689 29.9953 315.689 29.3277C315.689 28.6601 315.132 28.1189 314.445 28.1189C313.758 28.1189 313.201 28.6601 313.201 29.3277C313.201 29.9953 313.758 30.5365 314.445 30.5365Z" fill="#0C0C0C"/>
<path d="M331.54 38.096C334.608 38.1341 337.136 34.9743 337.176 31.9921C337.217 29.0099 334.749 27.3345 331.681 27.2969L330.074 29.2753L328.903 38.0635L331.54 38.096Z" fill="#E98862"/>
<path d="M328.487 33.3022C328.487 33.3022 327.451 18.5547 322.85 17.6438C319.786 17.0373 312.355 21.2621 305.473 19.9861C302.462 19.4296 299.603 20.1522 299.313 21.5348C299.197 22.0822 297.322 14.2152 302.037 8.24652C305.791 3.49521 318.076 2.15115 323.666 3.70924C339.142 8.02479 332.313 27.9439 332.313 27.9439L331.623 33.0282L328.487 33.3022Z" fill="#0C0C0C"/>
<g opacity="0.52">
<path d="M309.198 37.8822C309.192 37.8827 309.185 37.8827 309.179 37.8822C308.19 37.8728 306.533 37.7491 306.539 37.0304C306.546 36.4346 308.29 30.0212 308.489 29.2918C308.506 29.229 308.548 29.1754 308.606 29.1428C308.664 29.1101 308.733 29.1012 308.797 29.1178C308.862 29.1344 308.917 29.1753 308.951 29.2315C308.984 29.2876 308.993 29.3544 308.976 29.4172C308.201 32.2577 307.047 36.6306 307.043 37.0364C307.139 37.2076 308.16 37.384 309.183 37.3943C309.248 37.3956 309.309 37.421 309.355 37.4652C309.401 37.5094 309.428 37.569 309.43 37.6318C309.432 37.6945 309.409 37.7556 309.366 37.8023C309.322 37.8491 309.263 37.878 309.198 37.8831V37.8822Z" fill="#0C0C0C"/>
</g>
<path d="M305.825 23.5144C304.786 23.2364 303.689 23.2364 302.65 23.5144C302.14 23.6478 301.653 23.855 301.206 24.1291C300.764 24.3974 300.358 24.719 299.999 25.0862C299.933 25.1516 299.895 25.2393 299.894 25.331C299.892 25.4228 299.928 25.5115 299.992 25.5788C300.056 25.6461 300.144 25.6867 300.239 25.6922C300.333 25.6977 300.426 25.6677 300.498 25.6084L300.52 25.5896C300.852 25.2903 301.222 25.033 301.621 24.8238C302.012 24.6156 302.433 24.466 302.87 24.3803C303.731 24.205 304.624 24.2536 305.459 24.5212L305.493 24.5331C305.63 24.576 305.778 24.5653 305.907 24.5034C306.036 24.4415 306.134 24.3332 306.182 24.2016C306.23 24.0701 306.223 23.9256 306.163 23.7988C306.103 23.6721 305.995 23.5731 305.861 23.523L305.825 23.5144Z" fill="#0C0C0C"/>
<path d="M313.183 24.1209C313.974 23.7475 314.852 23.5837 315.729 23.6462C316.173 23.6743 316.611 23.7678 317.027 23.9236C317.451 24.0796 317.852 24.2867 318.222 24.54L318.246 24.5554C318.325 24.6052 318.422 24.6232 318.514 24.6057C318.607 24.5882 318.689 24.5366 318.744 24.4615C318.799 24.3865 318.821 24.2939 318.807 24.203C318.793 24.1121 318.744 24.0299 318.669 23.9737C318.263 23.6563 317.817 23.3901 317.342 23.1814C316.862 22.9677 316.351 22.8254 315.826 22.7593C314.759 22.6179 313.671 22.7594 312.679 23.169C312.613 23.1971 312.553 23.2376 312.502 23.2883C312.452 23.339 312.412 23.3989 312.386 23.4645C312.359 23.5301 312.346 23.6001 312.347 23.6706C312.349 23.741 312.364 23.8106 312.393 23.8752C312.452 24.0058 312.561 24.1084 312.697 24.1606C312.765 24.1865 312.837 24.1991 312.909 24.1979C312.982 24.1967 313.053 24.1816 313.12 24.1535L313.151 24.1393L313.183 24.1209Z" fill="#0C0C0C"/>
<path d="M312.679 8.3135C313.377 5.06456 312.102 2.05689 309.832 1.5957C307.561 1.13451 305.153 3.39445 304.455 6.6434C303.757 9.89234 305.032 12.9 307.303 13.3612C309.574 13.8224 311.981 11.5624 312.679 8.3135Z" fill="#0C0C0C"/>
<path d="M279.167 94.0844C279.761 100.861 283.968 143.143 284.54 151.49H361.859C362.303 143.962 364.298 111.04 365.983 96.3154C367.591 82.2661 369.845 75.8728 367.993 71.5072C364.726 63.8067 354.328 60.3682 347.287 59.4414C342.987 58.8756 336.52 58.4702 336.52 58.4702C336.52 58.4702 335.972 69.2368 322.916 69.8361C305.142 70.6494 306.33 58.4702 306.241 58.4702C303.362 58.4702 287.689 60.5056 283.77 62.9882C278.235 66.4948 276.599 71.2739 276.534 75.6644C276.46 80.7209 278.495 86.3972 279.167 94.0844Z" fill="#14B8A6"/>
<path d="M283.088 134.828C283.033 134.829 282.98 134.809 282.939 134.773C282.898 134.736 282.873 134.687 282.868 134.633L279.939 102.068C279.933 102.011 279.952 101.955 279.989 101.911C280.027 101.868 280.08 101.841 280.139 101.836C280.167 101.833 280.197 101.835 280.224 101.844C280.252 101.852 280.278 101.866 280.3 101.884C280.323 101.902 280.341 101.924 280.354 101.95C280.367 101.975 280.375 102.002 280.377 102.03L283.307 134.596C283.312 134.652 283.293 134.709 283.256 134.752C283.218 134.795 283.165 134.823 283.107 134.828C283.101 134.828 283.094 134.829 283.088 134.828Z" fill="#0C0C0C"/>
<path d="M288.695 153.745L299.311 145.373L297.525 145.863C296.945 146.011 296.329 145.938 295.802 145.661C295.274 145.384 294.875 144.923 294.684 144.37C294.596 144.082 294.569 143.779 294.605 143.48C294.641 143.182 294.74 142.893 294.895 142.632C295.049 142.372 295.257 142.145 295.505 141.964C295.753 141.784 296.036 141.655 296.337 141.585L318.64 136.312L320.56 143.218C321.156 145.362 321.08 147.631 320.341 149.733C319.602 151.835 318.234 153.675 316.412 155.017L308.148 161.079C307.725 161.401 307.2 161.572 306.663 161.562C306.125 161.552 305.607 161.362 305.197 161.024C304.833 160.711 304.582 160.292 304.48 159.83C304.378 159.368 304.431 158.887 304.631 158.456C304.595 158.445 304.563 158.426 304.537 158.399C304.515 158.373 304.5 158.342 304.493 158.309C304.486 158.276 304.487 158.242 304.497 158.21L302.975 159.33C302.504 159.691 301.911 159.865 301.313 159.817C300.716 159.769 300.16 159.502 299.757 159.07C299.411 158.672 299.22 158.169 299.219 157.648C299.217 157.127 299.405 156.622 299.749 156.222C299.725 156.219 299.701 156.211 299.68 156.199L299.055 156.66C298.632 156.983 298.107 157.153 297.57 157.143C297.032 157.133 296.514 156.943 296.104 156.605C295.663 156.225 295.39 155.694 295.343 155.123C295.296 154.551 295.478 153.984 295.852 153.541C295.843 153.528 295.835 153.515 295.83 153.501L291.408 156.988C291.189 157.16 290.937 157.29 290.666 157.368C290.396 157.446 290.112 157.471 289.831 157.443C289.551 157.414 289.279 157.333 289.03 157.202C288.782 157.071 288.563 156.894 288.385 156.681C288.207 156.468 288.075 156.223 287.994 155.96C287.914 155.697 287.887 155.422 287.917 155.149C287.946 154.876 288.03 154.611 288.165 154.37C288.299 154.129 288.481 153.916 288.7 153.743L288.695 153.745Z" fill="#E98862"/>
<path opacity="0.2" d="M296.094 153.626C296.117 153.618 296.139 153.606 296.158 153.59L300.412 150.155C300.434 150.138 300.452 150.116 300.465 150.092C300.478 150.068 300.486 150.041 300.488 150.014C300.491 149.987 300.488 149.959 300.48 149.933C300.471 149.907 300.458 149.883 300.44 149.862C300.422 149.841 300.4 149.824 300.375 149.811C300.35 149.798 300.323 149.79 300.295 149.788C300.267 149.785 300.239 149.788 300.212 149.797C300.185 149.805 300.16 149.818 300.138 149.835L295.885 153.27C295.846 153.301 295.82 153.345 295.811 153.393C295.802 153.441 295.811 153.491 295.836 153.533C295.861 153.575 295.9 153.608 295.948 153.625C295.995 153.642 296.047 153.642 296.094 153.626Z" fill="#0A0A0A"/>
<path opacity="0.2" d="M299.843 156.22C299.866 156.212 299.887 156.2 299.906 156.185L303.271 153.511C303.315 153.476 303.343 153.425 303.348 153.371C303.354 153.316 303.337 153.261 303.301 153.218C303.265 153.175 303.213 153.148 303.157 153.143C303.1 153.137 303.044 153.154 303 153.189L299.635 155.863C299.596 155.894 299.569 155.937 299.56 155.986C299.55 156.034 299.559 156.084 299.584 156.127C299.609 156.17 299.648 156.202 299.696 156.219C299.743 156.236 299.795 156.237 299.843 156.22Z" fill="#0A0A0A"/>
<path opacity="0.2" d="M304.768 158.463C304.793 158.454 304.815 158.441 304.835 158.424L306.394 157.125C306.415 157.108 306.433 157.086 306.445 157.062C306.458 157.037 306.466 157.011 306.468 156.983C306.47 156.956 306.467 156.929 306.458 156.903C306.449 156.877 306.435 156.853 306.417 156.832C306.399 156.812 306.376 156.795 306.351 156.782C306.326 156.77 306.299 156.762 306.271 156.76C306.243 156.758 306.215 156.762 306.188 156.77C306.162 156.779 306.137 156.792 306.116 156.81L304.557 158.109C304.519 158.141 304.494 158.184 304.485 158.232C304.477 158.28 304.486 158.329 304.511 158.371C304.536 158.413 304.576 158.445 304.623 158.462C304.67 158.478 304.721 158.479 304.768 158.463Z" fill="#0A0A0A"/>
<path d="M382.527 133.238L382.446 132.887L368.333 72.2148L340.413 78.3496L351.428 125.708L307.303 136.247L312.733 160.448L371.535 149.546C371.667 149.521 371.863 149.483 371.997 149.453C373.784 149.06 375.474 148.33 376.97 147.302C378.466 146.275 379.739 144.971 380.717 143.465C381.695 141.96 382.358 140.282 382.669 138.527C382.979 136.772 382.931 134.975 382.527 133.238Z" fill="#14B8A6"/>
<path d="M307.087 136.293C307.075 136.239 307.086 136.182 307.116 136.135C307.147 136.088 307.195 136.054 307.25 136.041L351.179 125.554L344.036 94.8906C344.028 94.8627 344.026 94.8335 344.03 94.8047C344.034 94.776 344.044 94.7483 344.059 94.7234C344.074 94.6985 344.095 94.6768 344.119 94.6598C344.143 94.6427 344.17 94.6306 344.199 94.6242C344.229 94.6178 344.259 94.6172 344.288 94.6224C344.317 94.6277 344.345 94.6387 344.37 94.6548C344.395 94.6708 344.416 94.6916 344.433 94.7159C344.449 94.7402 344.46 94.7675 344.465 94.796L351.656 125.665C351.669 125.719 351.659 125.777 351.629 125.825C351.599 125.873 351.55 125.908 351.494 125.921L307.562 136.408C307.562 136.408 307.856 137.657 307.939 138.078C307.946 138.133 307.93 138.188 307.894 138.231C307.859 138.274 307.808 138.302 307.751 138.309C307.695 138.315 307.638 138.299 307.594 138.265C307.549 138.231 307.52 138.181 307.514 138.126C307.413 137.664 307.087 136.293 307.087 136.293Z" fill="#0C0C0C"/>
<path d="M308.809 170.087L291.843 119.396C291.545 118.506 290.965 117.729 290.185 117.179C289.405 116.628 288.466 116.332 287.503 116.332H218.384C217.663 116.332 216.953 116.498 216.311 116.816C215.669 117.134 215.114 117.595 214.69 118.162C214.267 118.728 213.987 119.384 213.875 120.076C213.762 120.768 213.82 121.475 214.043 122.141L231.009 172.832C231.307 173.723 231.888 174.499 232.667 175.049C233.447 175.6 234.386 175.896 235.35 175.896H304.468C305.189 175.896 305.899 175.73 306.541 175.412C307.183 175.094 307.738 174.633 308.161 174.067C308.585 173.5 308.864 172.844 308.977 172.152C309.089 171.461 309.032 170.753 308.809 170.087Z" fill="#292A2E"/>
<path opacity="0.2" d="M308.809 170.087L291.843 119.396C291.545 118.506 290.965 117.729 290.185 117.179C289.405 116.628 288.466 116.332 287.503 116.332H218.384C217.663 116.332 216.953 116.498 216.311 116.816C215.669 117.134 215.114 117.595 214.69 118.162C214.267 118.728 213.987 119.384 213.875 120.076C213.762 120.768 213.82 121.475 214.043 122.141L231.009 172.832C231.307 173.723 231.888 174.499 232.667 175.049C233.447 175.6 234.386 175.896 235.35 175.896H304.468C305.189 175.896 305.899 175.73 306.541 175.412C307.183 175.094 307.738 174.633 308.161 174.067C308.585 173.5 308.864 172.844 308.977 172.152C309.089 171.461 309.032 170.753 308.809 170.087Z" fill="white"/>
<path d="M259.435 153.16C263.439 153.16 266.684 150.006 266.684 146.114C266.684 142.223 263.439 139.068 259.435 139.068C255.431 139.068 252.186 142.223 252.186 146.114C252.186 150.006 255.431 153.16 259.435 153.16Z" fill="white"/>
<path d="M191.193 5.35645H54.0094C47.6539 5.35645 42.5018 10.3643 42.5018 16.5417V178.416C42.5018 184.593 47.6539 189.601 54.0094 189.601H191.193C197.548 189.601 202.701 184.593 202.701 178.416V16.5417C202.701 10.3643 197.548 5.35645 191.193 5.35645Z" fill="#292A2E"/>
<path d="M196.264 0.427979H59.0799C52.7244 0.427979 47.5723 5.43579 47.5723 11.6132V173.487C47.5723 179.665 52.7244 184.672 59.0799 184.672H196.264C202.619 184.672 207.771 179.665 207.771 173.487V11.6132C207.771 5.43579 202.619 0.427979 196.264 0.427979Z" fill="white"/>
<path d="M196.264 185.101H59.0799C55.9121 185.097 52.8751 183.872 50.6351 181.695C48.3952 179.518 47.1353 176.566 47.132 173.487V11.6133C47.1355 8.53431 48.3954 5.58239 50.6353 3.40521C52.8752 1.22803 55.9122 0.00339895 59.0799 0L196.264 0C199.431 0.00351223 202.468 1.22819 204.708 3.40536C206.948 5.58253 208.208 8.53438 208.211 11.6133V173.487C208.208 176.566 206.948 179.518 204.708 181.695C202.468 183.872 199.431 185.097 196.264 185.101ZM59.0799 0.856091C56.1457 0.859263 53.3326 1.99363 51.2578 4.01031C49.183 6.02699 48.016 8.76129 48.0127 11.6133V173.487C48.016 176.339 49.183 179.073 51.2578 181.09C53.3326 183.106 56.1457 184.241 59.0799 184.244H196.264C199.198 184.241 202.011 183.106 204.085 181.09C206.16 179.073 207.327 176.339 207.33 173.487V11.6133C207.327 8.76132 206.16 6.02703 204.085 4.01033C202.011 1.99364 199.198 0.859263 196.264 0.856091H59.0799Z" fill="#292A2E"/>
<path d="M45.7245 207.835C61.5035 207.835 74.2949 195.402 74.2949 180.064C74.2949 164.727 61.5035 152.294 45.7245 152.294C29.9455 152.294 17.1541 164.727 17.1541 180.064C17.1541 195.402 29.9455 207.835 45.7245 207.835Z" fill="#292A2E"/>
<path d="M39.7935 176.44C39.4173 176.44 39.0566 176.295 38.7906 176.037C38.5246 175.778 38.3751 175.428 38.375 175.062V168.388C38.375 164.698 41.6721 161.696 45.7245 161.696C49.7768 161.696 53.074 164.698 53.074 168.388V174.604C53.0773 174.787 53.043 174.969 52.9733 175.139C52.9035 175.309 52.7995 175.464 52.6675 175.595C52.5355 175.725 52.378 175.829 52.2043 175.9C52.0306 175.971 51.8441 176.007 51.6557 176.007C51.4673 176.007 51.2809 175.971 51.1071 175.9C50.9334 175.829 50.7759 175.725 50.6439 175.595C50.5119 175.464 50.408 175.309 50.3382 175.139C50.2684 174.969 50.2342 174.787 50.2375 174.604V168.388C50.2375 166.218 48.2117 164.453 45.7245 164.453C43.2372 164.453 41.2115 166.218 41.2115 168.388V175.063C41.2112 175.428 41.0617 175.779 40.7958 176.037C40.5299 176.295 40.1694 176.44 39.7935 176.44Z" fill="white"/>
<path d="M54.7725 173.908H36.6765C35.6212 173.908 34.7657 174.74 34.7657 175.766V192.334C34.7657 193.359 35.6212 194.191 36.6765 194.191H54.7725C55.8278 194.191 56.6833 193.359 56.6833 192.334V175.766C56.6833 174.74 55.8278 173.908 54.7725 173.908Z" fill="white"/>
<path d="M43.9229 182.409C43.9228 182.738 44.0176 183.06 44.1967 183.339C44.3758 183.617 44.6319 183.842 44.9358 183.986V186.676C44.9358 186.879 45.0187 187.073 45.1662 187.217C45.3137 187.36 45.5137 187.441 45.7223 187.441C45.9309 187.441 46.131 187.36 46.2785 187.217C46.426 187.073 46.5088 186.879 46.5088 186.676V183.986C46.7982 183.849 47.0448 183.64 47.2228 183.379C47.4009 183.119 47.5039 182.817 47.5213 182.505C47.5386 182.192 47.4696 181.881 47.3215 181.604C47.1733 181.326 46.9514 181.092 46.6788 180.926C46.4062 180.76 46.0928 180.668 45.7712 180.66C45.4496 180.651 45.1316 180.726 44.8501 180.878C44.5686 181.029 44.3339 181.251 44.1705 181.52C44.0071 181.79 43.9208 182.097 43.9207 182.409H43.9229Z" fill="#292A2E"/>
<path d="M184.284 92.3606H71.0595C68.3566 92.3606 66.1655 94.4903 66.1655 97.1175V112.546C66.1655 115.173 68.3566 117.303 71.0595 117.303H184.284C186.987 117.303 189.178 115.173 189.178 112.546V97.1175C189.178 94.4903 186.987 92.3606 184.284 92.3606Z" fill="white"/>
<path d="M184.283 117.73H71.0595C69.6452 117.729 68.2894 117.182 67.2893 116.21C66.2893 115.238 65.7268 113.92 65.7252 112.546V97.1175C65.7268 95.7428 66.2893 94.4249 67.2893 93.4528C68.2893 92.4807 69.6452 91.9338 71.0595 91.9321H184.283C185.698 91.9337 187.054 92.4805 188.054 93.4526C189.054 94.4247 189.617 95.7427 189.618 97.1175V112.546C189.617 113.92 189.054 115.238 188.054 116.21C187.054 117.182 185.698 117.729 184.283 117.73ZM71.0595 92.7882C69.8786 92.7895 68.7465 93.246 67.9116 94.0576C67.0767 94.8693 66.6071 95.9697 66.6059 97.1175V112.546C66.6072 113.693 67.0768 114.794 67.9118 115.605C68.7467 116.417 69.8787 116.873 71.0595 116.874H184.283C185.464 116.873 186.596 116.417 187.431 115.605C188.266 114.794 188.736 113.693 188.737 112.546V97.1175C188.736 95.9697 188.267 94.8692 187.432 94.0576C186.596 93.246 185.464 92.7895 184.283 92.7882H71.0595Z" fill="#292A2E"/>
<path d="M184.284 128.006H71.0595C68.3566 128.006 66.1655 130.135 66.1655 132.762V148.191C66.1655 150.818 68.3566 152.948 71.0595 152.948H184.284C186.987 152.948 189.178 150.818 189.178 148.191V132.762C189.178 130.135 186.987 128.006 184.284 128.006Z" fill="white"/>
<path d="M184.283 153.376H71.0595C69.645 153.374 68.2889 152.827 67.2889 151.855C66.2888 150.882 65.7264 149.564 65.7252 148.189V132.763C65.7268 131.388 66.2893 130.07 67.2893 129.098C68.2894 128.126 69.6452 127.579 71.0595 127.578H184.283C185.698 127.579 187.054 128.126 188.054 129.098C189.054 130.07 189.617 131.388 189.618 132.763V148.189C189.617 149.564 189.054 150.883 188.054 151.855C187.054 152.827 185.698 153.374 184.283 153.376ZM71.0595 128.434C69.8787 128.435 68.7467 128.891 67.9118 129.703C67.0768 130.515 66.6072 131.615 66.6059 132.763V148.189C66.6072 149.337 67.0768 150.437 67.9118 151.249C68.7467 152.06 69.8787 152.517 71.0595 152.518H184.283C185.464 152.517 186.596 152.061 187.431 151.249C188.267 150.437 188.736 149.337 188.737 148.189V132.763C188.736 131.615 188.267 130.514 187.431 129.703C186.596 128.891 185.464 128.435 184.283 128.434H71.0595Z" fill="#292A2E"/>
<path d="M127.672 73.8078C142.19 73.8078 153.959 62.3679 153.959 48.2561C153.959 34.1443 142.19 22.7043 127.672 22.7043C113.153 22.7043 101.384 34.1443 101.384 48.2561C101.384 62.3679 113.153 73.8078 127.672 73.8078Z" fill="white"/>
<path d="M127.671 74.236C122.385 74.236 117.217 72.7123 112.822 69.8576C108.427 67.0029 105.001 62.9454 102.978 58.1982C100.955 53.451 100.425 48.2274 101.457 43.1878C102.488 38.1482 105.034 33.519 108.772 29.8857C112.51 26.2523 117.272 23.778 122.457 22.7756C127.642 21.7731 133.016 22.2876 137.9 24.254C142.784 26.2203 146.958 29.5502 149.895 33.8226C152.832 38.0949 154.4 43.1179 154.4 48.2562C154.392 55.1441 151.573 61.7477 146.563 66.6181C141.552 71.4886 134.758 74.2283 127.671 74.236ZM127.671 23.1325C122.559 23.1325 117.562 24.6059 113.311 27.3666C109.061 30.1272 105.748 34.051 103.791 38.6417C101.835 43.2325 101.323 48.284 102.321 53.1576C103.318 58.0311 105.78 62.5077 109.394 66.0213C113.009 69.5349 117.615 71.9277 122.629 72.8971C127.643 73.8665 132.84 73.369 137.563 71.4674C142.286 69.5659 146.323 66.3457 149.163 62.2142C152.003 58.0826 153.519 53.2252 153.519 48.2562C153.511 41.5952 150.786 35.2093 145.94 30.4993C141.094 25.7893 134.524 23.1399 127.671 23.1325Z" fill="#292A2E"/>
<path opacity="0.5" d="M153.376 48.2562C153.383 54.1704 151.224 59.894 147.285 64.4017C144.859 61.6526 141.85 59.4461 138.464 57.9335C135.078 56.421 131.396 55.6382 127.67 55.6388C123.944 55.6395 120.262 56.4236 116.876 57.9373C113.491 59.451 110.483 61.6586 108.058 64.4085C105.383 61.3401 103.51 57.6895 102.598 53.7668C101.685 49.8441 101.76 45.7653 102.817 41.8769C103.874 37.9885 105.88 34.4055 108.666 31.4323C111.452 28.4591 114.936 26.1835 118.82 24.7989C122.705 23.4143 126.876 22.9617 130.979 23.4794C135.082 23.9971 138.996 25.4699 142.389 27.7727C145.781 30.0754 148.551 33.14 150.464 36.7062C152.377 40.2723 153.375 44.2345 153.376 48.2562Z" fill="#14B8A6"/>
<path d="M147.285 64.4018C144.872 67.1709 141.868 69.3961 138.481 70.9225C135.095 72.4489 131.406 73.2399 127.673 73.2405C123.94 73.2412 120.251 72.4515 116.864 70.9262C113.476 69.401 110.471 67.1769 108.058 64.4086C110.483 61.6587 113.491 59.4511 116.876 57.9374C120.262 56.4236 123.944 55.6396 127.67 55.6389C131.396 55.6383 135.078 56.4211 138.464 57.9336C141.85 59.4462 144.859 61.6527 147.285 64.4018Z" fill="white"/>
<path d="M127.672 50.9773C133.41 50.9773 138.062 46.4559 138.062 40.8784C138.062 35.301 133.41 30.7795 127.672 30.7795C121.934 30.7795 117.282 35.301 117.282 40.8784C117.282 46.4559 121.934 50.9773 127.672 50.9773Z" fill="white"/>
<g opacity="0.4">
<path d="M75.6962 143.514C77.4221 143.514 78.8211 142.154 78.8211 140.477C78.8211 138.799 77.4221 137.439 75.6962 137.439C73.9704 137.439 72.5713 138.799 72.5713 140.477C72.5713 142.154 73.9704 143.514 75.6962 143.514Z" fill="#292A2E"/>
<path d="M85.4713 143.514C87.1971 143.514 88.5962 142.154 88.5962 140.477C88.5962 138.799 87.1971 137.439 85.4713 137.439C83.7454 137.439 82.3464 138.799 82.3464 140.477C82.3464 142.154 83.7454 143.514 85.4713 143.514Z" fill="#292A2E"/>
<path d="M95.2464 143.514C96.9722 143.514 98.3713 142.154 98.3713 140.477C98.3713 138.799 96.9722 137.439 95.2464 137.439C93.5205 137.439 92.1215 138.799 92.1215 140.477C92.1215 142.154 93.5205 143.514 95.2464 143.514Z" fill="#292A2E"/>
<path d="M105.022 143.514C106.747 143.514 108.146 142.154 108.146 140.477C108.146 138.799 106.747 137.439 105.022 137.439C103.296 137.439 101.897 138.799 101.897 140.477C101.897 142.154 103.296 143.514 105.022 143.514Z" fill="#292A2E"/>
<path d="M114.796 143.514C116.522 143.514 117.921 142.154 117.921 140.477C117.921 138.799 116.522 137.439 114.796 137.439C113.07 137.439 111.671 138.799 111.671 140.477C111.671 142.154 113.07 143.514 114.796 143.514Z" fill="#292A2E"/>
<path d="M124.571 143.514C126.297 143.514 127.696 142.154 127.696 140.477C127.696 138.799 126.297 137.439 124.571 137.439C122.845 137.439 121.446 138.799 121.446 140.477C121.446 142.154 122.845 143.514 124.571 143.514Z" fill="#292A2E"/>
<path d="M134.346 143.514C136.072 143.514 137.471 142.154 137.471 140.477C137.471 138.799 136.072 137.439 134.346 137.439C132.62 137.439 131.221 138.799 131.221 140.477C131.221 142.154 132.62 143.514 134.346 143.514Z" fill="#292A2E"/>
</g>
<g opacity="0.3">
<path d="M78.7956 104.649V105.676H74.7824V104.649H78.7956Z" fill="black"/>
<path d="M83.7829 104.649V105.676H79.7697V104.649H83.7829Z" fill="black"/>
<path d="M88.7697 104.649V105.676H84.7565V104.649H88.7697Z" fill="black"/>
<path d="M93.7566 104.649V105.676H89.7434V104.649H93.7566Z" fill="black"/>
<path d="M98.7443 104.649V105.676H94.7307V104.649H98.7443Z" fill="black"/>
<path d="M107.744 110.445C106.852 110.891 105.857 111.108 104.854 111.078C102.189 111.078 99.9307 109.183 99.9307 106.15C99.9307 102.897 102.255 100.086 105.861 100.086C108.688 100.086 110.59 102.012 110.59 104.65C110.59 107.019 109.224 108.409 107.697 108.409C107.048 108.409 106.447 107.981 106.495 107.019H106.43C106.22 107.436 105.894 107.786 105.489 108.032C105.084 108.278 104.617 108.408 104.14 108.409C103.197 108.409 102.385 107.666 102.385 106.419C102.383 105.927 102.481 105.439 102.674 104.984C102.867 104.53 103.151 104.116 103.509 103.768C103.867 103.42 104.292 103.145 104.76 102.957C105.228 102.77 105.73 102.674 106.236 102.676C106.833 102.667 107.425 102.78 107.975 103.008L107.422 105.866C107.178 107.065 107.374 107.621 107.909 107.635C108.738 107.651 109.664 106.577 109.664 104.745C109.664 102.455 108.251 100.813 105.732 100.813C103.084 100.813 100.858 102.85 100.858 106.056C100.858 108.693 102.629 110.32 105.034 110.32C105.886 110.339 106.73 110.149 107.487 109.767L107.744 110.445ZM106.851 103.622C106.587 103.547 106.313 103.51 106.038 103.512C104.608 103.512 103.455 104.822 103.455 106.354C103.455 107.049 103.813 107.553 104.527 107.553C105.47 107.553 106.331 106.384 106.509 105.405L106.851 103.622Z" fill="black"/>
<path d="M115.704 104.649V105.676H111.691V104.649H115.704Z" fill="black"/>
<path d="M120.691 104.649V105.676H116.677V104.649H120.691Z" fill="black"/>
<path d="M125.678 104.649V105.676H121.665V104.649H125.678Z" fill="black"/>
</g>
</g>
<defs>
<clipPath id="clip0_439_595">
<rect width="392" height="369" fill="white"/>
</clipPath>
</defs>
</svg>
